<svg class="leaf-deco" viewBox="0 0 300 300" fill="none" stroke="var(--accent-orange)" stroke-width="1.5" stroke-linecap="round" stroke-linejoin="round">\n  <!-- Stem -->\n  <path d="M 50 280 Q 150 200 280 30" />\n  <path d="M 57.7 273.7 Q 48.3 262.3 47.2 244.0" />\n  <path d="M 57.7 273.7 Q 67.2 285.1 84.9 289.7" />\n  <path d="M 65.6 267.2 Q 52.9 252.2 49.0 229.9" />\n  <path d="M 65.6 267.2 Q 78.2 282.1 99.7 289.5" />\n  <path d="M 73.5 260.3 Q 57.6 242.1 50.9 215.8" />\n  <path d="M 73.5 260.3 Q 89.4 278.6 114.6 288.7" />\n  <path d="M 81.5 253.3 Q 62.4 232.0 53.0 202.0" />\n  <path d="M 81.5 253.3 Q 100.6 274.5 129.4 287.1" />\n  <path d="M 89.6 245.9 Q 67.4 221.8 55.5 188.4" />\n  <path d="M 89.6 245.9 Q 111.7 270.0 144.1 284.7" />\n  <path d="M 97.8 238.3 Q 72.7 211.7 58.3 175.1" />\n  <path d="M 97.8 238.3 Q 122.8 264.9 158.5 281.4" />\n  <path d="M 106.0 230.4 Q 78.3 201.7 61.6 162.2" />\n  <path d="M 106.0 230.4 Q 133.7 259.1 172.5 277.2" />\n  <path d="M 114.4 222.2 Q 84.2 191.7 65.6 149.8" />\n  <path d="M 114.4 222.2 Q 144.5 252.8 186.1 272.0" />\n  <path d="M 122.8 213.8 Q 90.6 181.8 70.3 137.8" />\n  <path d="M 122.8 213.8 Q 155.1 245.8 199.2 265.8" />\n  <path d="M 131.4 205.1 Q 97.4 172.1 75.8 126.4" />\n  <path d="M 131.4 205.1 Q 165.3 238.2 211.6 258.6" />\n  <path d="M 140.0 196.2 Q 104.7 162.5 82.1 115.4" />\n  <path d="M 140.0 196.2 Q 175.3 229.9 223.4 250.3" />\n  <path d="M 148.7 187.0 Q 112.4 153.0 89.3 105.0" />\n  <path d="M 148.7 187.0 Q 185.0 221.0 234.4 240.9" />\n  <path d="M 157.5 177.5 Q 120.7 143.6 97.4 95.1" />\n  <path d="M 157.5 177.5 Q 194.3 211.4 244.6 230.5" />\n  <path d="M 166.4 167.8 Q 129.5 134.4 106.6 85.7" />\n  <path d="M 166.4 167.8 Q 203.3 201.1 254.1 219.0" />\n  <path d="M 175.4 157.7 Q 138.9 125.3 116.7 76.7" />\n  <path d="M 175.4 157.7 Q 211.9 190.2 262.7 206.5" />\n  <path d="M 184.4 147.5 Q 148.8 116.2 127.8 68.2" />\n  <path d="M 184.4 147.5 Q 220.1 178.7 270.5 193.1" />\n  <path d="M 193.6 136.9 Q 159.2 107.3 139.8 60.1" />\n  <path d="M 193.6 136.9 Q 228.0 166.6 277.5 178.7" />\n  <path d="M 202.8 126.1 Q 170.1 98.3 152.8 52.4" />\n  <path d="M 202.8 126.1 Q 235.6 153.9 283.7 163.5" />\n  <path d="M 212.2 115.0 Q 181.5 89.4 166.7 44.9" />\n  <path d="M 212.2 115.0 Q 242.8 140.6 289.2 147.4" />\n  <path d="M 221.6 103.7 Q 193.4 80.4 181.4 37.6" />\n  <path d="M 221.6 103.7 Q 249.8 126.9 294.1 130.6" />\n  <path d="M 231.1 92.1 Q 205.7 71.4 196.8 30.5" />\n  <path d="M 231.1 92.1 Q 256.5 112.7 298.4 113.1" />\n  <path d="M 240.7 80.2 Q 218.4 62.3 213.0 23.4" />\n  <path d="M 240.7 80.2 Q 263.0 98.1 302.2 95.0" />\n  <path d="M 250.4 68.0 Q 231.4 53.0 229.7 16.3" />\n  <path d="M 250.4 68.0 Q 269.4 83.1 305.5 76.4" />\n  <path d="M 260.2 55.6 Q 244.8 43.6 246.9 9.1" />\n  <path d="M 260.2 55.6 Q 275.6 67.7 308.5 57.3" />\n</svg>